<svg xmlns:dc="http://purl.org/dc/elements/1.1/" xmlns:cc="http://creativecommons.org/ns#" xmlns:rdf="http://www.w3.org/1999/02/22-rdf-syntax-ns#" xmlns:svg="http://www.w3.org/2000/svg" xmlns="http://www.w3.org/2000/svg" xmlns:sodipodi="http://sodipodi.sourceforge.net/DTD/sodipodi-0.dtd" xmlns:inkscape="http://www.inkscape.org/namespaces/inkscape" width="64" height="64" viewBox="0 0 16.933333 16.933333" version="1.1" id="svg8" inkscape:version="0.92.3 (2405546, 2018-03-11)" sodipodi:docname="21-Hybrid.svg">
  <defs id="defs2"></defs>
  <sodipodi:namedview id="base" pagecolor="#ffffff" bordercolor="#666666" borderopacity="1.0" inkscape:pageopacity="0.0" inkscape:pageshadow="2" inkscape:zoom="5.656854" inkscape:cx="91.034242" inkscape:cy="22.898935" inkscape:document-units="px" inkscape:current-layer="layer2" showgrid="false" inkscape:snap-smooth-nodes="true" inkscape:snap-page="true" inkscape:snap-midpoints="false" inkscape:snap-intersection-paths="true" inkscape:object-paths="true" inkscape:object-nodes="true" units="px" inkscape:snap-bbox="true" inkscape:bbox-paths="false" inkscape:snap-bbox-midpoints="false" inkscape:window-width="1920" inkscape:window-height="1040" inkscape:window-x="0" inkscape:window-y="0" inkscape:window-maximized="1" inkscape:snap-grids="true" inkscape:snap-to-guides="true" inkscape:snap-bbox-edge-midpoints="false" inkscape:snap-nodes="true" inkscape:snap-others="false" inkscape:bbox-nodes="true" showguides="true" inkscape:guide-bbox="true" inkscape:measure-start="0,0" inkscape:measure-end="0,0" inkscape:snap-global="true">
    <inkscape:grid type="xygrid" id="grid815" enabled="true"></inkscape:grid>
  </sodipodi:namedview>
  <metadata id="metadata5">
    <rdf:rdf>
      <cc:work rdf:about="">
        <dc:format>image/svg+xml</dc:format>
        <dc:type rdf:resource="http://purl.org/dc/dcmitype/StillImage"></dc:type>
        <dc:title></dc:title>
      </cc:work>
    </rdf:rdf>
  </metadata>
  <g inkscape:groupmode="layer" id="layer2" inkscape:label="21-Hybrid">
    <path style="display: inline; opacity: 1; fill: rgb(168, 218, 220); fill-opacity: 1; stroke: none; stroke-width: 0.529166; stroke-linecap: round; stroke-linejoin: round; stroke-miterlimit: 4; stroke-dasharray: none;" d="M 1.5875188,12.434671 H 12.698667 c 0.439736,0 0.793748,0.354012 0.793748,0.793749 v 2.116669 c 0,0.439736 -0.354012,0.793748 -0.793748,0.793748 H 1.5875188 c -0.4397365,0 -0.79374825,-0.354012 -0.79374825,-0.793748 V 13.22842 c 0,-0.439737 0.35401175,-0.793749 0.79374825,-0.793749 z" id="rect11030" inkscape:connector-curvature="0" sodipodi:nodetypes="ccccccccc"></path>
    <path style="display: inline; opacity: 1; fill: rgb(69, 123, 157); fill-opacity: 1; stroke: none; stroke-width: 0.529167; stroke-linecap: round; stroke-linejoin: round; stroke-miterlimit: 4; stroke-dasharray: none;" d="m 3.4396052,14.286753 c -3e-7,0.29225 -0.2369158,0.529165 -0.5291659,0.529165 -0.2922501,0 -0.5291657,-0.236915 -0.529166,-0.529165 -3e-7,-0.29225 0.2369155,-0.529166 0.529166,-0.529166 0.2922505,0 0.5291662,0.236916 0.5291659,0.529166 z" id="ellipse11032" inkscape:connector-curvature="0" sodipodi:nodetypes="ccccc"></path>
    <path id="path11034" d="m 12.92638,12.471401 c 0.0217,0.0726 0.0367,0.148028 0.0367,0.227893 v 2.116666 c 0,0.439737 -0.35401,0.79375 -0.79375,0.79375 H 1.05838 c -0.0799,0 -0.15529,-0.01494 -0.22789,-0.03669 0.098,0.327146 0.39719,0.565857 0.75706,0.565857 H 12.6985 c 0.43974,0 0.79375,-0.354014 0.79375,-0.79375 V 13.22846 c 0,-0.359967 -0.23858,-0.659148 -0.56586,-0.757059 z" style="display: inline; opacity: 1; fill: rgb(69, 123, 157); fill-opacity: 1; stroke: none; stroke-width: 0.529166; stroke-linecap: round; stroke-linejoin: round; stroke-miterlimit: 4; stroke-dasharray: none;" inkscape:connector-curvature="0" sodipodi:nodetypes="cccccccccccc"></path>
    <path inkscape:connector-curvature="0" style="opacity: 1; fill: rgb(168, 218, 220); fill-opacity: 1; stroke: none; stroke-width: 0.529167; stroke-linecap: round; stroke-linejoin: round; stroke-miterlimit: 4; stroke-dasharray: none; stroke-dashoffset: 0; stroke-opacity: 1;" d="M 8.32046,0.794594 C 7.6713593,0.79579814 7.0303197,0.94375758 6.44202,1.22816 5.4074529,1.7307845 4.5981218,2.6255614 4.18066,3.728265 L 4.03494,3.692605 C 2.9992,3.631705 1.99443,4.118774 1.37722,5.001053 0.69983,5.969339 0.60347,7.249974 1.12762,8.315579 c 0.52415,1.065604 1.58053,1.736328 2.7342,1.736328 h 9.76788 c 1.13653,0 2.13153,-0.791332 2.42569,-1.929598 C 16.34955,6.984044 15.8697,5.782499 14.88544,5.193289 14.226,4.798531 13.45061,4.746274 12.76877,5.004154 12.663482,3.7880334 12.099018,2.664308 11.19832,1.877729 10.392162,1.1762354 9.3728941,0.79261433 8.32046,0.794591 Z" id="path11004" sodipodi:nodetypes="cccccccccccccc"></path>
    <path style="opacity: 1; fill: rgb(69, 123, 157); fill-opacity: 1; stroke: none; stroke-width: 0.529167; stroke-linecap: round; stroke-linejoin: round; stroke-miterlimit: 4; stroke-dasharray: none; stroke-dashoffset: 0; stroke-opacity: 1;" d="m 15.08697,5.328684 c 0.4678,0.628694 0.64668,1.461799 0.43925,2.264462 -0.29415,1.138265 -1.28916,1.929598 -2.42569,1.929598 H 3.33265 c -0.68291,0 -1.33066,-0.23674 -1.85518,-0.649573 0.57563,0.736572 1.44772,1.178739 2.38435,1.178739 h 9.76788 c 1.13653,0 2.13153,-0.791332 2.42569,-1.929598 0.27325,-1.057352 -0.122,-2.168606 -0.96842,-2.793628 z" id="path11011" inkscape:connector-curvature="0" sodipodi:nodetypes="ccccccccc"></path>
    <path style="opacity: 1; fill: rgb(69, 123, 157); fill-opacity: 1; stroke: none; stroke-width: 0.529167; stroke-linecap: round; stroke-linejoin: round; stroke-miterlimit: 4; stroke-dasharray: none; stroke-dashoffset: 0; stroke-opacity: 1;" d="m 8.32873,0.794594 c -0.0712,0.002 -0.14238,0.0058 -0.21342,0.01137 2.33703,0.172002 4.14818,2.188026 4.14806,4.617289 0,0 0.51419,-0.422402 0.51075,-0.423324 C 12.56793,2.642125 10.65643,0.794777 8.32873,0.794595 Z" id="path11014" inkscape:connector-curvature="0" sodipodi:nodetypes="cccccc"></path>
    <path style="opacity: 1; fill: rgb(69, 123, 157); fill-opacity: 1; stroke: none; stroke-width: 2; stroke-linecap: round; stroke-linejoin: round; stroke-miterlimit: 4; stroke-dasharray: none; stroke-dashoffset: 0; stroke-opacity: 1;" d="m 31.447266,3.0039062 c -2.453294,0.00455 -4.876115,0.5637651 -7.09961,1.6386719 -3.870053,1.8801907 -6.900552,5.2153189 -8.492187,9.3242189 0.462069,-0.03064 0.926821,-0.03727 1.394531,-0.0098 l 0.550781,0.134766 C 19.37859,9.9240981 22.437481,6.5422613 26.347656,4.6425781 28.246875,3.7244367 30.292108,3.186292 32.376953,3.0449219 32.067394,3.0277633 31.758687,3.0033213 31.447266,3.0039062 Z M 15.25,13.957031 c -3.914608,-0.230173 -7.7121596,1.610715 -10.0449219,4.945313 -2.5602142,3.659663 -2.9243988,8.49986 -0.9433593,12.527344 1.9810394,4.027479 5.9736562,6.5625 10.3339842,6.5625 h 2 c -4.360328,0 -8.3529448,-2.535021 -10.3339842,-6.5625 C 4.2806793,27.402204 4.6448639,22.562007 7.2050781,18.902344 9.1807212,16.078235 12.210526,14.340407 15.46875,14.009766 Z" transform="scale(0.26458333)" id="path841" inkscape:connector-curvature="0" sodipodi:nodetypes="ccccccccccsscsccc"></path>
    <path style="display: inline; opacity: 1; fill: rgb(168, 218, 220); fill-opacity: 1; stroke: none; stroke-width: 0.529166; stroke-linecap: round; stroke-linejoin: round; stroke-miterlimit: 4; stroke-dasharray: none;" d="M 1.5875188,8.730505 H 12.698667 c 0.439736,0 0.793748,0.3540117 0.793748,0.7937482 v 2.1166688 c 0,0.439737 -0.354012,0.793749 -0.793748,0.793749 H 1.5875188 c -0.4397365,0 -0.79374825,-0.354012 -0.79374825,-0.793749 V 9.5242532 c 0,-0.4397365 0.35401175,-0.7937482 0.79374825,-0.7937482 z" id="rect11021" inkscape:connector-curvature="0" sodipodi:nodetypes="ccccccccc"></path>
    <path style="display: inline; opacity: 1; fill: rgb(69, 123, 157); fill-opacity: 1; stroke: none; stroke-width: 0.529167; stroke-linecap: round; stroke-linejoin: round; stroke-miterlimit: 4; stroke-dasharray: none;" d="m 3.4396052,10.582586 c 3e-7,0.29225 -0.2369154,0.529166 -0.5291659,0.529166 -0.2922505,0 -0.5291663,-0.236916 -0.529166,-0.529166 3e-7,-0.29225 0.2369159,-0.529165 0.529166,-0.529165 0.2922501,0 0.5291656,0.236915 0.5291659,0.529165 z" id="ellipse11028" inkscape:connector-curvature="0" sodipodi:nodetypes="ccccc"></path>
    <path inkscape:connector-curvature="0" style="display: inline; opacity: 1; fill: rgb(69, 123, 157); fill-opacity: 1; stroke: none; stroke-width: 0.529166; stroke-linecap: round; stroke-linejoin: round; stroke-miterlimit: 4; stroke-dasharray: none;" d="m 12.92638,8.767234 c 0.0217,0.0726 0.0367,0.148029 0.0367,0.227893 v 2.116667 c 0,0.439736 -0.35401,0.79375 -0.79375,0.79375 H 1.05838 c -0.0799,0 -0.15529,-0.01494 -0.22789,-0.03669 0.098,0.327146 0.39719,0.565857 0.75706,0.565857 H 12.6985 c 0.43974,0 0.79375,-0.354014 0.79375,-0.79375 V 9.524294 c 0,-0.359967 -0.23858,-0.659148 -0.56586,-0.75706 z" id="rect11025" sodipodi:nodetypes="cccccccccccc"></path>
    <path style="display: inline; opacity: 1; fill: rgb(69, 123, 157); fill-opacity: 1; stroke: none; stroke-width: 2; stroke-linecap: round; stroke-linejoin: round; stroke-miterlimit: 4; stroke-dasharray: none;" d="M 6 32.998047 C 4.3380037 32.998047 3 34.336051 3 35.998047 L 3 43.998047 C 3 45.660045 4.3380037 46.998047 6 46.998047 L 8 46.998047 C 6.3380037 46.998047 5 45.660045 5 43.998047 L 5 35.998047 C 5 34.336051 6.3380037 32.998047 8 32.998047 L 6 32.998047 z " transform="scale(0.26458333)" id="path846"></path>
    <path id="path849" d="m 1.5875,12.4349 c -0.4397365,0 -0.79375001,0.354013 -0.79375001,0.79375 v 2.116666 c 0,0.439737 0.35401351,0.79375 0.79375001,0.79375 h 0.5291666 c -0.4397365,0 -0.79375,-0.354013 -0.79375,-0.79375 V 13.22865 c 0,-0.439737 0.3540135,-0.79375 0.79375,-0.79375 z" style="display: inline; opacity: 1; fill: rgb(69, 123, 157); fill-opacity: 1; stroke: none; stroke-width: 0.529166; stroke-linecap: round; stroke-linejoin: round; stroke-miterlimit: 4; stroke-dasharray: none;" inkscape:connector-curvature="0"></path>
    <path style="color: rgb(0, 0, 0); font-style: normal; font-variant: normal; font-weight: normal; font-stretch: normal; font-size: medium; line-height: normal; font-family: sans-serif; font-feature-settings: normal; text-indent: 0px; text-align: start; text-decoration: none solid rgb(0, 0, 0); letter-spacing: normal; word-spacing: normal; text-transform: none; writing-mode: lr-tb; direction: ltr; text-orientation: mixed; dominant-baseline: auto; baseline-shift: baseline; text-anchor: start; white-space: normal; clip-rule: nonzero; display: inline; overflow: visible; visibility: visible; opacity: 1; isolation: auto; mix-blend-mode: normal; color-interpolation: srgb; color-interpolation-filters: linearrgb; vector-effect: none; fill: rgb(29, 53, 87); fill-opacity: 1; fill-rule: nonzero; stroke: none; stroke-width: 0.529167; stroke-linecap: round; stroke-linejoin: round; stroke-miterlimit: 4; stroke-dasharray: none; stroke-dashoffset: 0; stroke-opacity: 1; color-rendering: auto; image-rendering: auto; shape-rendering: auto; text-rendering: auto;" d="M 8.0103447,0.54055411 C 6.2121186,0.66617212 4.7049247,1.8249901 4.0105888,3.427716 2.8947657,3.3741961 1.8235057,3.9043642 1.1621837,4.8498511 0.42886676,5.8982692 0.32460071,7.280598 0.89139976,8.433096 c 0.03561,0.07242 0.07154,0.1402612 0.11162104,0.2092891 -0.28615504,0.19021 -0.47232304,0.516182 -0.47232304,0.88315 v 2.1171829 c 0,0.316734 0.134964,0.598206 0.357601,0.792199 -0.218504,0.192454 -0.357601,0.477016 -0.357601,0.79375 v 2.117184 c 0,0.592091 0.47719304,1.058333 1.05884994,1.058333 H 12.698948 c 0.587857,0 1.059366,-0.476576 1.059366,-1.058333 v -2.117182 c -7.7e-5,-0.316734 -0.142714,-0.604396 -0.359151,-0.79375 0.216437,-0.188824 0.358557,-0.475464 0.358635,-0.792199 l 5.29e-4,-1.328085 C 14.962968,10.256915 15.999385,9.401603 16.311143,8.1891851 16.62796,6.9570851 16.12075,5.624005 15.020782,4.9666422 14.476999,4.641061 13.863612,4.5240461 13.271019,4.604907 13.179869,4.617348 13.088794,4.633347 12.9992,4.655037 12.642764,2.3257301 10.725466,0.60054211 8.4723318,0.53125612 8.3197336,0.52655411 8.1656376,0.52975411 8.0103447,0.54055411 Z M 12.490179,4.833317 c -0.301779,0.140089 -0.583152,0.3385021 -0.826307,0.5906622 -0.249687,0.2539849 0.13604,0.6261079 0.380857,0.3674189 0.721353,-0.748071 1.823544,-0.897813 2.704227,-0.3705201 0.880681,0.527294 1.314942,1.6088661 1.049548,2.6360151 C 15.544423,9.040247 14.7177,9.726587 13.758318,9.7834031 V 9.525537 C 13.758447,8.943781 13.288876,8.4666869 12.698952,8.4666869 H 1.5895477 c -0.02317,0 -0.05005,6.01e-5 -0.07286,0.00151 C 1.4609077,8.380187 1.4131578,8.29478 1.3663088,8.19952 0.88494566,7.2207439 0.97449066,6.0414079 1.5957517,5.153194 2.1216187,4.401366 2.9474287,3.9673691 3.8183557,3.9537841 3.6772707,4.4179392 3.6007976,4.913671 3.6007976,5.4234622 c -0.008,0.3606988 0.537165,0.3606988 0.5291661,0 0,-2.2934971 1.715534,-4.1999111 3.9175909,-4.3537401 0.1376291,-0.0096 0.274012,-0.01238 0.4092776,-0.00828 2.0162588,0.061276 3.7536388,1.6323 4.0333468,3.7718789 z M 8.2010336,3.439604 v 1.0567831 h -1.059884 c -0.3535975,-4.76e-4 -0.3535975,0.5301589 0,0.5296829 h 1.059884 v 1.059884 c -0.00802,0.360708 0.5371861,0.360708 0.5291661,0 V 5.02607 H 9.7874992 C 9.9360505,5.0278066 10.05692,4.9069373 10.055184,4.758386 10.05375,4.6120598 9.9338225,4.4946795 9.7874992,4.4963871 H 8.7301997 V 3.439604 C 8.7319303,3.2912577 8.6113811,3.1704757 8.4630322,3.1719201 8.3167068,3.1733538 8.1993265,3.2932809 8.2010336,3.439604 Z M 1.5895518,8.9963711 h 3.172932 V 12.170853 H 1.5895507 c -0.289426,0 -0.5291659,-0.230389 -0.5291659,-0.528133 V 9.525537 c 0,-0.2915409 0.2314739,-0.5291659 0.5291659,-0.5291659 z m 3.7026159,0 h 7.4067843 c 0.297692,0 0.530271,0.2396919 0.5302,0.5291659 l -5.3e-4,2.117183 c -4.5e-5,0.286375 -0.231989,0.528133 -0.529682,0.528133 H 5.2921666 Z m -2.3812499,0.792716 c -0.44448,0 -0.792716,0.3595279 -0.792716,0.7947829 1e-6,0.435255 0.351691,0.793233 0.792716,0.793233 0.441026,0 0.794784,-0.357978 0.794784,-0.793233 0,-0.435255 -0.3503031,-0.7947829 -0.794784,-0.7947829 z m 0,0.5291659 c 0.142005,0 0.2656181,0.116355 0.265617,0.265617 0,0.149264 -0.122579,0.26355 -0.265617,0.26355 -0.143037,0 -0.263549,-0.114286 -0.263549,-0.26355 0,-0.149262 0.121545,-0.265617 0.263549,-0.265617 z m 3.1749999,0 c -0.3450449,0.0076 -0.3450449,0.521519 0,0.529167 h 5.8203183 c 0.345045,-0.0076 0.345045,-0.521519 0,-0.529167 z M 1.5895518,12.70002 h 3.1729331 v 3.175 H 1.5895507 c -0.290458,0 -0.5291659,-0.231424 -0.5291659,-0.529167 v -2.117184 c 0,-0.297743 0.2428409,-0.528649 0.5291659,-0.528649 z m 3.7026159,0 h 7.4067843 c 0.288391,0 0.530128,0.230906 0.5302,0.528649 v 2.117184 c -0.0021,0.292576 -0.234575,0.529167 -0.5302,0.529167 H 5.2921666 Z m -2.3812499,0.794266 c -0.440346,0 -0.792715,0.357462 -0.792716,0.792717 0,0.435255 0.350302,0.7953 0.792716,0.7953 0.4424151,0 0.794784,-0.360045 0.794784,-0.7953 -1.1e-6,-0.435255 -0.3544369,-0.792717 -0.794784,-0.792717 z m 0,0.529167 c 0.14047,10e-7 0.265617,0.114287 0.265617,0.26355 0,0.149263 -0.123686,0.265617 -0.265617,0.265617 -0.14193,0 -0.263549,-0.116354 -0.263549,-0.265617 0,-0.149263 0.12308,-0.26355 0.263549,-0.26355 z m 3.167766,0 c -0.3606841,-0.008 -0.3606841,0.537162 0,0.529167 h 5.8203172 c 0.360684,0.008 0.360684,-0.537162 0,-0.529167 z" id="path2996" inkscape:connector-curvature="0" sodipodi:nodetypes="ccccccccccccccccccccccccccccccccccccccccccccccccccccccccccccccccccccccccccccccccccccccccccccccccccccccccccccccccccccc"></path>
  </g>
</svg>